<?xml version="1.0" ?><svg id="Icons" viewBox="0 0 128 128" xmlns="http://www.w3.org/2000/svg" xmlns:xlink="http://www.w3.org/1999/xlink"><defs><style>.cls-1{fill:url(#New_Gradient_Swatch_1);}</style><linearGradient gradientUnits="userSpaceOnUse" id="New_Gradient_Swatch_1" x1="20" x2="108" y1="64" y2="64"><stop offset="0" stop-color="#67a3ff"/><stop offset="1" stop-color="#418cff"/></linearGradient></defs><path class="cls-1" d="M88,59.54a31,31,0,0,0,9-21.78C97,20.25,82.2,6,64,6S31,20.25,31,37.76a31,31,0,0,0,9,21.78A27.63,27.63,0,0,0,20,86.1v30.38A5.52,5.52,0,0,0,25.53,122h76.94a5.52,5.52,0,0,0,5.53-5.52V86.1A27.63,27.63,0,0,0,88,59.54Z"/></svg>